<svg xmlns="http://www.w3.org/2000/svg" width="30" height="30" viewBox="0 0 30 30" fill="none"><path d="M6.73827 12.5977H4.39453" stroke="#00AA63" style="stroke:#00AA63;stroke:color(display-p3 0.0000 0.6667 0.3867);stroke-opacity:1;" stroke-width="1.5" stroke-miterlimit="10" stroke-linecap="round" stroke-linejoin="round"></path><path d="M11.9414 16.1133H4.39453" stroke="#00AA63" style="stroke:#00AA63;stroke:color(display-p3 0.0000 0.6667 0.3867);stroke-opacity:1;" stroke-width="1.5" stroke-miterlimit="10" stroke-linecap="round" stroke-linejoin="round"></path><path d="M11.5976 12.5977H9.25391" stroke="#00AA63" style="stroke:#00AA63;stroke:color(display-p3 0.0000 0.6667 0.3867);stroke-opacity:1;" stroke-width="1.5" stroke-miterlimit="10" stroke-linecap="round" stroke-linejoin="round"></path><path d="M29.121 17.8711V2.63677C29.121 1.66599 28.334 0.878963 27.3632 0.878963H2.63671C1.66594 0.878963 0.878906 1.66599 0.878906 2.63677V18.457C0.878906 19.4278 1.66594 20.2148 2.63671 20.2148H12.5742" stroke="#00AA63" style="stroke:#00AA63;stroke:color(display-p3 0.0000 0.6667 0.3867);stroke-opacity:1;" stroke-width="1.5" stroke-miterlimit="10" stroke-linecap="round" stroke-linejoin="round"></path><path d="M0.878906 4.39453H29.121" stroke="#00AA63" style="stroke:#00AA63;stroke:color(display-p3 0.0000 0.6667 0.3867);stroke-opacity:1;" stroke-width="1.5" stroke-miterlimit="10" stroke-linecap="round" stroke-linejoin="round"></path><path d="M0.878906 7.91016H29.121" stroke="#00AA63" style="stroke:#00AA63;stroke:color(display-p3 0.0000 0.6667 0.3867);stroke-opacity:1;" stroke-width="1.5" stroke-miterlimit="10" stroke-linecap="round" stroke-linejoin="round"></path><path d="M15.5742 15.4024C19.0898 13.8399 22.6054 13.8399 26.1211 15.4024V19.0066C26.1211 22.5158 24.0544 25.6959 20.8476 27.1211C17.6409 25.6959 15.5742 22.5158 15.5742 19.0066V15.4024Z" stroke="#00AA63" style="stroke:#00AA63;stroke:color(display-p3 0.0000 0.6667 0.3867);stroke-opacity:1;" stroke-width="1.5" stroke-miterlimit="10" stroke-linecap="round" stroke-linejoin="round"></path><path d="M18.9832 20.676L20.2261 21.9189L22.712 19.4331" stroke="#00AA63" style="stroke:#00AA63;stroke:color(display-p3 0.0000 0.6667 0.3867);stroke-opacity:1;" stroke-width="1.5" stroke-miterlimit="10" stroke-linecap="round" stroke-linejoin="round"></path></svg>