<svg xmlns="http://www.w3.org/2000/svg" width="30" height="30" viewBox="0 0 30 30" fill="none"><path d="M10.5468 16.1719L5.85938 20.8594V16.1719H3.51562C2.22123 16.1719 1.17188 15.1225 1.17188 13.8281V4.45312C1.17188 3.15873 2.22123 2.10938 3.51562 2.10938H17.5781C18.8725 2.10938 19.9219 3.15873 19.9219 4.45312V13.8281C19.9219 15.1225 18.8725 16.1719 17.5781 16.1719H10.5468Z" stroke="#00AA63" style="stroke:#00AA63;stroke:color(display-p3 0.0000 0.6667 0.3867);stroke-opacity:1;" stroke-width="1.5" stroke-miterlimit="10" stroke-linecap="round" stroke-linejoin="round"></path><path d="M12.6562 20.8594C12.6562 22.1538 13.7056 23.2031 15 23.2031H19.6876L24.375 27.8906V23.2031H26.4844C27.7788 23.2031 28.8281 22.1538 28.8281 20.8594V11.4844C28.8281 10.19 27.7788 9.14062 26.4844 9.14062H24.1406" stroke="#00AA63" style="stroke:#00AA63;stroke:color(display-p3 0.0000 0.6667 0.3867);stroke-opacity:1;" stroke-width="1.5" stroke-miterlimit="10" stroke-linecap="round" stroke-linejoin="round"></path><path d="M5.92114 7.22266H14.2429" stroke="#00AA63" style="stroke:#00AA63;stroke:color(display-p3 0.0000 0.6667 0.3867);stroke-opacity:1;" stroke-width="1.5" stroke-miterlimit="10" stroke-linecap="round" stroke-linejoin="round"></path><path d="M5.92114 11H10.624" stroke="#00AA63" style="stroke:#00AA63;stroke:color(display-p3 0.0000 0.6667 0.3867);stroke-opacity:1;" stroke-width="1.5" stroke-miterlimit="10" stroke-linecap="round" stroke-linejoin="round"></path></svg>