<svg xmlns="http://www.w3.org/2000/svg" width="30" height="30" viewBox="0 0 30 30" fill="none"><g clip-path="url(#clip0_119_168)"><path d="M13.5993 14.6238L7.85308 20.3694C7.27886 20.9436 6.34751 20.9436 5.77271 20.3694C5.4856 20.0823 5.34204 19.7058 5.34204 19.3293C5.34187 19.1361 5.37983 18.9448 5.45373 18.7663C5.52763 18.5878 5.63603 18.4256 5.77271 18.2891L11.5189 12.5435" stroke="#00AA63" style="stroke:#00AA63;stroke:color(display-p3 0.0000 0.6667 0.3867);stroke-opacity:1;" stroke-width="1.5" stroke-miterlimit="10" stroke-linecap="round" stroke-linejoin="round"></path><path d="M13.5993 14.6235L7.85303 20.3692C7.71631 20.5056 7.60789 20.6676 7.53398 20.846C7.46008 21.0244 7.42215 21.2156 7.42236 21.4088C7.42236 21.7853 7.56592 22.1618 7.85303 22.4489C8.42725 23.0237 9.35859 23.0237 9.93275 22.4489L10.9574 21.4243" stroke="#00AA63" style="stroke:#00AA63;stroke:color(display-p3 0.0000 0.6667 0.3867);stroke-opacity:1;" stroke-width="1.5" stroke-miterlimit="10" stroke-linecap="round" stroke-linejoin="round"></path><path d="M11.5189 12.543L5.7726 18.2887C5.19838 18.8635 4.26703 18.8635 3.69287 18.2887C3.55616 18.1523 3.44774 17.9903 3.37383 17.8119C3.29992 17.6335 3.26199 17.4422 3.26221 17.2491C3.26221 16.8726 3.40576 16.4961 3.69287 16.2089L11.9872 7.91465L11.9871 7.9136L15.0179 10.9444C15.7072 11.6337 16.8247 11.6337 17.514 10.9444C18.2033 10.2551 18.2033 9.13762 17.514 8.44833L15.0012 5.93547M15.0012 5.93547L15 5.93665M15.0012 5.93547L15.8666 5.07004C18.9665 1.97014 23.9903 1.97014 27.0902 5.07004C28.3828 6.36262 29.1359 7.98819 29.3494 9.6696C29.6507 12.0229 28.8976 14.4863 27.0902 16.2936L22.5748 20.5835M16.3346 26.8237C15.7602 27.3981 14.8289 27.3981 14.2545 26.8237L10.9474 23.5166C10.373 22.9423 10.373 22.011 10.9474 21.4366C11.5218 20.8622 12.4531 20.8622 13.0275 21.4366L16.3346 24.7437C16.909 25.3181 16.909 26.2493 16.3346 26.8237Z" stroke="#00AA63" style="stroke:#00AA63;stroke:color(display-p3 0.0000 0.6667 0.3867);stroke-opacity:1;" stroke-width="1.5" stroke-miterlimit="10" stroke-linecap="round" stroke-linejoin="round"></path><path d="M15.1077 19.3566C14.5333 18.7822 13.602 18.7822 13.0276 19.3566C12.4532 19.931 12.4532 20.8623 13.0276 21.4367L16.3347 24.7437C16.9091 25.3181 17.8404 25.3181 18.4148 24.7437C18.9892 24.1694 18.9892 23.2381 18.4148 22.6637M15.1077 19.3566L18.4148 22.6637M15.1077 19.3566C14.5333 18.7822 14.5333 17.8509 15.1077 17.2765C15.6821 16.7021 16.6134 16.7021 17.1878 17.2765L20.4948 20.5836C21.0692 21.158 21.0692 22.0893 20.4948 22.6637C19.9204 23.2381 18.9892 23.2381 18.4148 22.6637" stroke="#00AA63" style="stroke:#00AA63;stroke:color(display-p3 0.0000 0.6667 0.3867);stroke-opacity:1;" stroke-width="1.5" stroke-miterlimit="10" stroke-linecap="round" stroke-linejoin="round"></path><path d="M22.5749 20.5836C22.0005 21.158 21.0692 21.158 20.4948 20.5836L17.1877 17.2765C16.6133 16.7021 16.6133 15.7708 17.1877 15.1964C17.7621 14.622 18.6934 14.622 19.2678 15.1964L22.5749 18.5035C23.1493 19.0779 23.1493 20.0092 22.5749 20.5836ZM3.69293 16.2089L11.9872 7.91465L11.9872 7.9136L15.018 10.9444C15.7073 11.6337 16.8248 11.6337 17.5141 10.9444C18.2034 10.2551 18.2034 9.13762 17.5141 8.44833L14.4833 5.4175L15.0012 5.93547L15.0001 5.93665L14.1335 5.07004C11.0341 1.97014 6.00979 1.97014 2.90983 5.07004C1.61783 6.36262 0.864201 7.98877 0.650627 9.6696C0.607315 10.0052 0.585707 10.3432 0.585939 10.6816C0.585939 12.7131 1.3602 14.744 2.90983 16.2937L3.36281 16.7149L3.69293 16.2089Z" stroke="#00AA63" style="stroke:#00AA63;stroke:color(display-p3 0.0000 0.6667 0.3867);stroke-opacity:1;" stroke-width="1.5" stroke-miterlimit="10" stroke-linecap="round" stroke-linejoin="round"></path></g><defs><clipPath id="clip0_119_168"><rect width="30" height="30" fill="white" style="fill:white;fill:white;fill-opacity:1;"></rect></clipPath></defs></svg>