<svg xmlns="http://www.w3.org/2000/svg" width="30" height="30" viewBox="0 0 30 30" fill="none"><path d="M9.72654 22.0313C9.72654 23.9729 8.09395 25.5469 6.15233 25.5469C4.21072 25.5469 2.63672 23.9729 2.63672 22.0313" stroke="#00AA63" style="stroke:#00AA63;stroke:color(display-p3 0.0000 0.6667 0.3867);stroke-opacity:1;" stroke-width="1.5" stroke-miterlimit="10" stroke-linecap="round" stroke-linejoin="round"></path><path d="M15 4.45312H20.2734" stroke="#00AA63" style="stroke:#00AA63;stroke:color(display-p3 0.0000 0.6667 0.3867);stroke-opacity:1;" stroke-width="1.5" stroke-miterlimit="10" stroke-linecap="round" stroke-linejoin="round"></path><path d="M0.878906 18.5156H4.39452" stroke="#00AA63" style="stroke:#00AA63;stroke:color(display-p3 0.0000 0.6667 0.3867);stroke-opacity:1;" stroke-width="1.5" stroke-miterlimit="10" stroke-linecap="round" stroke-linejoin="round"></path><path d="M13.2422 13.2422C13.2422 14.213 12.4551 15 11.4844 15H4.39453V11.4844H11.4844C12.4551 11.4844 13.2422 12.2714 13.2422 13.2422Z" stroke="#00AA63" style="stroke:#00AA63;stroke:color(display-p3 0.0000 0.6667 0.3867);stroke-opacity:1;" stroke-width="1.5" stroke-miterlimit="10" stroke-linecap="round" stroke-linejoin="round"></path><path d="M4.39453 7.96876V11.4844" stroke="#00AA63" style="stroke:#00AA63;stroke:color(display-p3 0.0000 0.6667 0.3867);stroke-opacity:1;" stroke-width="1.5" stroke-miterlimit="10" stroke-linecap="round" stroke-linejoin="round"></path><path d="M25.5468 16.7578L20.2734 22.0312H0.878906V18.5156C0.878906 16.574 2.45291 15 4.39452 15" stroke="#00AA63" style="stroke:#00AA63;stroke:color(display-p3 0.0000 0.6667 0.3867);stroke-opacity:1;" stroke-width="1.5" stroke-miterlimit="10" stroke-linecap="round" stroke-linejoin="round"></path><path d="M27.3045 22.0313C27.3045 23.9729 25.7305 25.5469 23.7889 25.5469C21.8473 25.5469 20.2733 23.9729 20.2733 22.0313" stroke="#00AA63" style="stroke:#00AA63;stroke:color(display-p3 0.0000 0.6667 0.3867);stroke-opacity:1;" stroke-width="1.5" stroke-miterlimit="10" stroke-linecap="round" stroke-linejoin="round"></path><path d="M16.7578 4.45314C17.7286 4.45314 18.5156 5.24016 18.5156 6.21094C18.5156 7.18172 19.3026 7.96875 20.2734 7.96875H23.789V4.45314H20.2734" stroke="#00AA63" style="stroke:#00AA63;stroke:color(display-p3 0.0000 0.6667 0.3867);stroke-opacity:1;" stroke-width="1.5" stroke-miterlimit="10" stroke-linecap="round" stroke-linejoin="round"></path><path d="M20.2733 22.0312H29.1209C29.1209 19.8766 27.845 17.907 25.9179 16.9434L25.5467 16.7578" stroke="#00AA63" style="stroke:#00AA63;stroke:color(display-p3 0.0000 0.6667 0.3867);stroke-opacity:1;" stroke-width="1.5" stroke-miterlimit="10" stroke-linecap="round" stroke-linejoin="round"></path><path d="M20.2734 7.96878V13.8825C20.2734 14.7942 20.0518 15.6923 19.6277 16.4994C19.2036 17.3065 18.5897 17.9984 17.8388 18.5156H11.4844V15" stroke="#00AA63" style="stroke:#00AA63;stroke:color(display-p3 0.0000 0.6667 0.3867);stroke-opacity:1;" stroke-width="1.5" stroke-miterlimit="10" stroke-linecap="round" stroke-linejoin="round"></path><path d="M25.5467 16.7578C25.5467 16.7578 26.4256 14.5606 25.5467 12.3633C24.6678 10.166 22.0311 7.96878 22.0311 7.96878" stroke="#00AA63" style="stroke:#00AA63;stroke:color(display-p3 0.0000 0.6667 0.3867);stroke-opacity:1;" stroke-width="1.5" stroke-miterlimit="10" stroke-linecap="round" stroke-linejoin="round"></path></svg>