<svg xmlns="http://www.w3.org/2000/svg" width="16" height="16" viewBox="0 0 16 16" fill="none"><g clip-path="url(#clip0_120_384)"><path d="M12.8421 9.94515C12.8994 9.94515 12.9494 9.90617 12.9634 9.85057L14.1639 5.06638C14.1837 4.98746 14.1241 4.91096 14.0427 4.91096H7.73602C7.25277 4.91096 6.86102 4.5192 6.86102 4.03596C6.86102 3.55271 7.25277 3.16096 7.73602 3.16096H14.0427C15.2632 3.16096 16.1584 4.30852 15.8613 5.49233L14.6607 10.2765C14.4515 11.1104 13.7019 11.6951 12.8421 11.6951H6.71427C5.84059 11.6951 5.0827 11.0917 4.88694 10.2403L2.99231 1.99935C2.97926 1.94259 2.92873 1.90236 2.87048 1.90236H1C0.51675 1.90236 0.125 1.51061 0.125 1.02736C0.125 0.544109 0.51675 0.152359 1 0.152359H2.87048C3.74416 0.152359 4.50205 0.755775 4.69781 1.60724L6.59245 9.84816C6.6055 9.90492 6.65603 9.94515 6.71427 9.94515H12.8421Z" fill="#00D783" style="fill:#00D783;fill:color(display-p3 0.0000 0.8417 0.5128);fill-opacity:1;"></path><path d="M11.5284 14.2225C11.5284 14.8818 12.0629 15.4163 12.7222 15.4163C13.3815 15.4163 13.9159 14.8818 13.9159 14.2225C13.9159 13.5632 13.3815 13.0288 12.7222 13.0288C12.0629 13.0288 11.5284 13.5632 11.5284 14.2225Z" fill="#00D783" style="fill:#00D783;fill:color(display-p3 0.0000 0.8417 0.5128);fill-opacity:1;"></path><path d="M6.43775 15.4163C5.77845 15.4163 5.24399 14.8818 5.24399 14.2225C5.24399 13.5632 5.77845 13.0288 6.43775 13.0288C7.09705 13.0288 7.63152 13.5632 7.63152 14.2225C7.63152 14.8818 7.09705 15.4163 6.43775 15.4163Z" fill="#00D783" style="fill:#00D783;fill:color(display-p3 0.0000 0.8417 0.5128);fill-opacity:1;"></path></g><defs><clipPath id="clip0_120_384"><rect width="16" height="16" fill="white" style="fill:white;fill:white;fill-opacity:1;" transform="matrix(-1 0 0 1 16 0)"></rect></clipPath></defs></svg>